<?xml version="1.0" encoding="UTF-8"?>
<!DOCTYPE svg PUBLIC "-//W3C//DTD SVG 1.1//EN" "http://www.w3.org/Graphics/SVG/1.1/DTD/svg11.dtd">
<!-- Creator: CorelDRAW 2020 (64 Bit) -->
<svg xmlns="http://www.w3.org/2000/svg" xml:space="preserve" width="4.83661cm" height="1.20892cm" version="1.1" style="shape-rendering:geometricPrecision; text-rendering:geometricPrecision; image-rendering:optimizeQuality; fill-rule:evenodd; clip-rule:evenodd"
viewBox="0 0 3195.1 798.62"
 xmlns:xlink="http://www.w3.org/1999/xlink"
 xmlns:xodm="http://www.corel.com/coreldraw/odm/2003">
 <defs>
  <style type="text/css">
   <![CDATA[
    .str0 {stroke:#96989A;stroke-width:13.21;stroke-miterlimit:22.9256}
    .fil8 {fill:none}
    .fil9 {fill:#373435}
    .fil3 {fill:#E79120}
    .fil2 {fill:#F57826}
    .fil5 {fill:#F6A424}
    .fil6 {fill:#F79324}
    .fil7 {fill:#F7A817}
    .fil4 {fill:#F8AC1B}
    .fil1 {fill:#F8B117}
    .fil0 {fill:#FCC014}
    .fil10 {fill:#373435;fill-rule:nonzero}
   ]]>
  </style>
   <clipPath id="id0">
    <path d="M277.2 792.02l42.65 0 152.31 -140.12 26.95 -220.95c36.55,-45.28 43.12,-22.75 58.34,-164.4 15.23,-141.65 -122.74,-266.55 -274.16,-266.55 -2.03,0 -4.06,0.03 -6.09,0.08l0 184.43 -152.31 65.28 36.56 85.29 102.79 44.06c-18.82,47.58 -47.96,132.62 -41.87,150.9 6.09,18.27 12.19,30.46 31.83,27.95l-13.56 63.43 -48.74 24.37 85.29 54.84 0 91.38z"/>
   </clipPath>
 </defs>
 <g id="Camada_x0020_1">
  <metadata id="CorelCorpID_0Corel-Layer"/>
  <path class="fil0" d="M277.2 792.02l42.65 0 152.31 -140.12 26.95 -220.95c36.55,-45.28 43.12,-22.75 58.34,-164.4 15.23,-141.65 -122.74,-266.55 -274.16,-266.55 -2.03,0 -4.06,0.03 -6.09,0.08l0 184.43 -152.31 65.28 36.56 85.29 102.79 44.06c-18.82,47.58 -47.96,132.62 -41.87,150.9 6.09,18.27 12.19,30.46 31.83,27.95l-13.56 63.43 -48.74 24.37 85.29 54.84 0 91.38z"/>
  <g style="clip-path:url(#id0)">
   <g id="_2187514175024">
    <polygon id="1" class="fil1" points="179.72,146.22 423.42,249.8 386.87,341.18 264.24,379.14 -51.79,249.8 130.99,115.76 "/>
    <polygon class="fil2" points="234.56,725 356.4,651.89 415.16,650.42 415.16,840.75 222.37,840.75 "/>
    <polygon class="fil2" points="149.26,651.89 356.4,651.89 313.76,627.52 173.63,627.52 "/>
    <path class="fil3" d="M332.03 536.14l-115.75 0c6.09,18.28 24.37,30.46 36.68,27.68 36.43,2.78 60.8,-15.5 79.07,-27.68z"/>
    <polygon class="fil4" points="709.77,670.17 301.57,469.12 301.75,367.53 405.14,329 758.5,201.06 "/>
    <polygon class="fil5" points="417.33,737.18 411.24,493.49 685.4,621.43 624.47,743.28 "/>
    <polygon class="fil6" points="557.45,597.06 411.99,523.5 415.56,325.25 709.77,219.33 "/>
    <polygon class="fil7" points="525.43,73.11 420.38,249.8 562.51,377.74 636.66,280.26 "/>
   </g>
  </g>
  <path class="fil8" d="M277.2 792.02l42.65 0 152.31 -140.12 26.95 -220.95c36.55,-45.28 43.12,-22.75 58.34,-164.4 15.23,-141.65 -122.74,-266.55 -274.16,-266.55 -2.03,0 -4.06,0.03 -6.09,0.08l0 184.43 -152.31 65.28 36.56 85.29 102.79 44.06c-18.82,47.58 -47.96,132.62 -41.87,150.9 6.09,18.27 12.19,30.46 31.83,27.95l-13.56 63.43 -48.74 24.37 85.29 54.84 0 91.38z"/>
  <polygon class="fil2" points="472.16,371.64 402.1,423.43 296.34,369.21 405.14,329 "/>
  <polyline class="fil8 str0" points="45.69,97.48 124.89,249.8 76.15,304.63 9.14,347.27 45.69,438.66 63.97,566.6 143.17,517.86 143.17,645.8 143.17,718.91 "/>
  <line class="fil8 str0" x1="264.24" y1="379.14" x2="76.15" y2= "304.63" />
  <polyline class="fil8 str0" points="264.24,379.14 143.17,420.38 70.06,365.55 "/>
  <polyline class="fil8 str0" points="136.63,328.59 70.06,365.55 9.14,347.27 "/>
  <line class="fil8 str0" x1="143.17" y1="517.86" x2="143.17" y2= "420.38" />
  <line class="fil8 str0" x1="45.69" y1="438.66" x2="143.17" y2= "517.86" />
  <path class="fil8 str0" d="M143.17 517.86l88.46 -44.35 32.61 -94.37c-13.95,50.3 -47.96,108.25 -41.87,150.9 6.09,42.64 48.74,18.27 18.28,91.38l-48.74 24.37"/>
  <line class="fil8 str0" x1="143.17" y1="645.8" x2="191.91" y2= "645.8" />
  <line class="fil8 str0" x1="277.2" y1="792.02" x2="234.56" y2= "792.02" />
  <polyline class="fil8 str0" points="283.29,377.74 277.2,184.51 124.89,249.8 "/>
  <line class="fil8 str0" x1="161.45" y1="335.09" x2="124.89" y2= "249.8" />
  <circle class="fil9" cx="76.15" cy="304.62" r="9.14"/>
  <circle class="fil9" cx="124.89" cy="249.79" r="9.14"/>
  <circle class="fil9" cx="277.21" cy="193.65" r="9.14"/>
  <circle class="fil9" cx="283.3" cy="386.87" r="9.14"/>
  <circle class="fil9" cx="230.04" cy="474.31" r="9.14"/>
  <circle class="fil9" cx="222.37" cy="530.04" r="9.14"/>
  <circle class="fil9" cx="231.94" cy="616.65" r="9.14"/>
  <circle class="fil9" cx="191.91" cy="645.8" r="9.14"/>
  <circle class="fil9" cx="234.56" cy="782.88" r="9.14"/>
  <circle class="fil9" cx="143.17" cy="718.91" r="9.14"/>
  <circle class="fil9" cx="143.17" cy="645.8" r="9.14"/>
  <circle class="fil9" cx="143.17" cy="508.72" r="9.14"/>
  <circle class="fil9" cx="63.97" cy="566.6" r="9.14"/>
  <circle class="fil9" cx="45.69" cy="438.66" r="9.14"/>
  <circle class="fil9" cx="9.14" cy="347.27" r="9.14"/>
  <circle class="fil9" cx="70.06" cy="365.55" r="9.14"/>
  <circle class="fil9" cx="256.22" cy="381.87" r="9.14"/>
  <circle class="fil9" cx="45.69" cy="97.48" r="9.14"/>
  <path class="fil10" d="M775.81 330.69l215.71 0 0 53.93 -215.71 0 0 107.85 -53.87 0 0 -269.63 269.57 0 0 53.93 -215.71 0 0 53.93zm483.31 161.78l-87.73 -201.84 -87.54 201.84 -58.77 0 117.05 -269.63 58.59 0 116.99 269.63 -58.59 0zm361.41 -53.93l0 53.93 -179.76 0c-59.88,0 -89.82,-29.94 -89.82,-89.88l0 -89.88c0,-59.88 29.94,-89.88 89.82,-89.88l179.76 0 0 53.93 -172.39 0c-28.84,0 -43.32,14.42 -43.32,43.13l0 75.34c0,28.89 14.54,43.32 43.49,43.32l172.21 0zm53.92 53.93l0 -53.93 269.57 0 0 53.93 -269.57 0zm0 -161.78l269.57 0 0 53.93 -269.57 0 0 -53.93zm0 -107.86l269.57 0 0 53.93 -269.57 0 0 -53.93zm494.23 107.86c29.94,0 44.91,-8.96 44.91,-26.93 0,-17.98 -14.97,-27 -44.91,-27l-116.87 0 0 53.93 116.87 0zm-116.87 161.78l-53.87 0 0 -269.63 179.69 0c59.94,0 89.88,27 89.88,80.92 0,53.93 -29.94,80.86 -89.88,80.86l-125.83 0 0 107.85zm452.57 0l-87.73 -201.84 -87.54 201.84 -58.77 0 117.05 -269.63 58.59 0 116.99 269.63 -58.59 0zm181.65 -107.85c-59.88,0 -89.82,-26.93 -89.82,-80.86 0,-53.93 29.94,-80.92 89.82,-80.92l179.76 0 0 53.93 -170.74 0c-29.94,0 -44.97,9.02 -44.97,27 0,17.98 15.03,26.93 44.97,26.93l80.86 0c59.94,0 89.88,26.99 89.88,80.92 0,53.93 -29.94,80.86 -89.88,80.86l-179.69 0 0 -53.93 170.73 0c29.94,0 44.91,-8.96 44.91,-26.93 0,-17.98 -14.97,-26.99 -44.91,-26.99l-80.92 0zm323.49 0c-59.88,0 -89.82,-26.93 -89.82,-80.86 0,-53.93 29.94,-80.92 89.82,-80.92l179.76 0 0 53.93 -170.74 0c-29.94,0 -44.97,9.02 -44.97,27 0,17.98 15.03,26.93 44.97,26.93l80.86 0c59.94,0 89.88,26.99 89.88,80.92 0,53.93 -29.94,80.86 -89.88,80.86l-179.69 0 0 -53.93 170.73 0c29.94,0 44.91,-8.96 44.91,-26.93 0,-17.98 -14.97,-26.99 -44.91,-26.99l-80.92 0z"/>
  <path class="fil10" d="M782.64 646.66c0,8.08 -2.93,14.37 -8.78,18.9 -5.87,4.52 -13.82,6.77 -23.87,6.77 -10.89,0 -19.26,-1.41 -25.11,-4.22l0 -10.31c3.77,1.59 7.86,2.85 12.29,3.77 4.44,0.92 8.83,1.37 13.2,1.37 7.11,0 12.47,-1.35 16.07,-4.05 3.6,-2.68 5.4,-6.43 5.4,-11.25 0,-3.17 -0.65,-5.78 -1.91,-7.8 -1.29,-2.03 -3.43,-3.9 -6.41,-5.63 -3,-1.71 -7.56,-3.67 -13.67,-5.83 -8.53,-3.07 -14.63,-6.69 -18.3,-10.86 -3.66,-4.18 -5.5,-9.64 -5.5,-16.39 0,-7.08 2.66,-12.71 7.97,-16.89 5.34,-4.18 12.37,-6.28 21.11,-6.28 9.13,0 17.53,1.67 25.18,5.01l-3.32 9.27c-7.58,-3.19 -14.96,-4.78 -22.11,-4.78 -5.63,0 -10.07,1.22 -13.24,3.64 -3.19,2.44 -4.78,5.81 -4.78,10.13 0,3.19 0.59,5.79 1.75,7.82 1.18,2.03 3.15,3.9 5.94,5.59 2.78,1.69 7.05,3.56 12.79,5.62 9.62,3.43 16.24,7.11 19.86,11.05 3.63,3.92 5.44,9.04 5.44,15.32zm46.24 25.67c-10.17,0 -18.19,-3.11 -24.06,-9.3 -5.89,-6.19 -8.83,-14.8 -8.83,-25.82 0,-11.1 2.72,-19.9 8.18,-26.44 5.46,-6.53 12.79,-9.79 22,-9.79 8.61,0 15.44,2.83 20.46,8.5 5.01,5.68 7.54,13.16 7.54,22.43l0 6.6 -47.39 0c0.21,8.08 2.25,14.2 6.1,18.4 3.88,4.18 9.32,6.28 16.37,6.28 7.39,0 14.72,-1.55 21.96,-4.65l0 9.3c-3.69,1.61 -7.18,2.74 -10.46,3.45 -3.28,0.69 -7.24,1.03 -11.89,1.03zm-2.83 -62.61c-5.53,0 -9.92,1.8 -13.2,5.4 -3.3,3.58 -5.23,8.55 -5.81,14.92l35.95 0c0,-6.56 -1.45,-11.59 -4.39,-15.09 -2.94,-3.49 -7.11,-5.23 -12.56,-5.23zm102.2 -7.46l0 6.6 -12.73 1.5c1.16,1.46 2.21,3.39 3.13,5.75 0.92,2.35 1.37,5.01 1.37,7.99 0,6.73 -2.29,12.11 -6.9,16.11 -4.6,4.01 -10.93,6.02 -18.96,6.02 -2.06,0 -3.96,-0.17 -5.79,-0.49 -4.43,2.33 -6.64,5.29 -6.64,8.85 0,1.89 0.77,3.28 2.31,4.18 1.57,0.9 4.22,1.35 7.99,1.35l12.17 0c7.45,0 13.17,1.57 17.18,4.71 3.98,3.13 5.98,7.7 5.98,13.67 0,7.6 -3.05,13.41 -9.15,17.39 -6.13,4.01 -15.04,6 -26.76,6 -9,0 -15.94,-1.67 -20.8,-5.01 -4.89,-3.34 -7.33,-8.07 -7.33,-14.16 0,-4.18 1.35,-7.8 4.02,-10.87 2.68,-3.04 6.45,-5.12 11.3,-6.19 -1.76,-0.81 -3.24,-2.03 -4.42,-3.71 -1.2,-1.69 -1.8,-3.64 -1.8,-5.85 0,-2.53 0.69,-4.72 2.01,-6.6 1.35,-1.89 3.45,-3.71 6.34,-5.46 -3.55,-1.48 -6.45,-3.96 -8.7,-7.48 -2.23,-3.51 -3.36,-7.54 -3.36,-12.06 0,-7.52 2.27,-13.32 6.79,-17.4 4.52,-4.09 10.93,-6.12 19.22,-6.12 3.6,0 6.84,0.43 9.73,1.28l23.78 0zm-54.87 80.32c0,3.71 1.57,6.53 4.71,8.46 3.13,1.91 7.63,2.87 13.5,2.87 8.75,0 15.23,-1.31 19.44,-3.92 4.2,-2.59 6.32,-6.15 6.32,-10.6 0,-3.73 -1.16,-6.3 -3.47,-7.74 -2.29,-1.43 -6.62,-2.17 -12.98,-2.17l-12.49 0c-4.74,0 -8.42,1.14 -11.05,3.39 -2.64,2.25 -3.96,5.48 -3.96,9.7zm5.65 -58.32c0,4.82 1.35,8.46 4.07,10.93 2.72,2.46 6.51,3.71 11.38,3.71 10.18,0 15.25,-4.95 15.25,-14.82 0,-10.35 -5.14,-15.51 -15.44,-15.51 -4.91,0 -8.67,1.33 -11.31,3.96 -2.64,2.64 -3.94,6.55 -3.94,11.74zm73.12 -22l0 44.63c0,5.59 1.26,9.79 3.83,12.55 2.55,2.77 6.56,4.14 12,4.14 7.2,0 12.45,-1.97 15.8,-5.89 3.32,-3.94 4.99,-10.37 4.99,-19.28l0 -36.15 10.41 0 0 68.78 -8.59 0 -1.5 -9.19 -0.58 0c-2.12,3.38 -5.1,5.98 -8.89,7.78 -3.77,1.8 -8.1,2.7 -12.96,2.7 -8.38,0 -14.63,-2 -18.81,-5.96 -4.16,-3.98 -6.24,-10.35 -6.24,-19.09l0 -45.01 10.54 0zm100.48 -1.28c3.05,0 5.79,0.26 8.21,0.75l-1.44 9.71c-2.85,-0.63 -5.35,-0.94 -7.54,-0.94 -5.55,0 -10.31,2.25 -14.27,6.77 -3.94,4.52 -5.91,10.15 -5.91,16.88l0 36.89 -10.44 0 0 -68.78 8.61 0 1.18 12.71 0.52 0c2.55,-4.48 5.62,-7.93 9.22,-10.35 3.6,-2.42 7.54,-3.64 11.86,-3.64zm60.83 70.06l-2.07 -9.79 -0.52 0c-3.43,4.31 -6.84,7.24 -10.24,8.79 -3.43,1.52 -7.67,2.29 -12.77,2.29 -6.84,0 -12.17,-1.76 -16.05,-5.27 -3.86,-3.53 -5.81,-8.53 -5.81,-15.04 0,-13.91 11.12,-21.19 33.31,-21.85l11.68 -0.38 0 -4.27c0,-5.38 -1.16,-9.36 -3.47,-11.93 -2.33,-2.57 -6.04,-3.86 -11.14,-3.86 -5.74,0 -12.21,1.76 -19.45,5.27l-3.19 -7.97c3.38,-1.84 7.09,-3.3 11.12,-4.35 4.05,-1.05 8.1,-1.57 12.15,-1.57 8.2,0 14.27,1.82 18.23,5.46 3.96,3.65 5.93,9.47 5.93,17.51l0 46.96 -7.72 0zm-23.54 -7.33c6.49,0 11.59,-1.78 15.28,-5.34 3.71,-3.55 5.57,-8.52 5.57,-14.93l0 -6.22 -10.44 0.45c-8.26,0.28 -14.24,1.57 -17.91,3.86 -3.66,2.27 -5.48,5.83 -5.48,10.63 0,3.77 1.14,6.64 3.43,8.59 2.27,1.98 5.46,2.96 9.55,2.96zm99.84 7.33l0 -44.5c0,-5.62 -1.26,-9.79 -3.84,-12.56 -2.55,-2.76 -6.55,-4.13 -12,-4.13 -7.19,0 -12.47,1.95 -15.81,5.83 -3.36,3.9 -5.03,10.33 -5.03,19.28l0 36.08 -10.42 0 0 -68.78 8.47 0 1.69 9.39 0.52 0c2.14,-3.38 5.12,-6.02 8.97,-7.89 3.86,-1.86 8.15,-2.78 12.88,-2.78 8.29,0 14.52,1.99 18.7,6 4.2,3.98 6.28,10.39 6.28,19.18l0 44.88 -10.41 0zm59.3 1.29c-9.96,0 -17.67,-3.07 -23.13,-9.2 -5.46,-6.15 -8.18,-14.82 -8.18,-26.03 0,-11.53 2.76,-20.42 8.31,-26.7 5.55,-6.28 13.44,-9.43 23.7,-9.43 3.3,0 6.6,0.36 9.92,1.07 3.3,0.71 5.89,1.55 7.78,2.53l-3.21 8.85c-2.29,-0.92 -4.8,-1.67 -7.52,-2.29 -2.72,-0.6 -5.12,-0.9 -7.22,-0.9 -13.97,0 -20.95,8.91 -20.95,26.73 0,8.44 1.69,14.94 5.09,19.45 3.43,4.52 8.46,6.77 15.17,6.77 5.71,0 11.61,-1.24 17.63,-3.71l0 9.26c-4.61,2.38 -10.39,3.58 -17.38,3.58zm9.26 16.84c0,4.05 -1.61,7.17 -4.8,9.4 -3.19,2.21 -7.95,3.32 -14.2,3.32 -2.15,0 -4.16,-0.19 -6.04,-0.55l0 -6.67c1.89,0.34 4.07,0.5 6.53,0.52 3.3,-0.02 5.81,-0.43 7.5,-1.26 1.69,-0.84 2.54,-2.38 2.54,-4.65 0,-1.8 -0.83,-3.24 -2.48,-4.35 -1.64,-1.12 -4.76,-2.01 -9.32,-2.72l5.53 -11.16 6.9 0 -3.45 7.2c7.52,1.63 11.3,5.27 11.3,10.93zm66.73 -18.13l-2.07 -9.79 -0.52 0c-3.43,4.31 -6.84,7.24 -10.24,8.79 -3.43,1.52 -7.67,2.29 -12.77,2.29 -6.84,0 -12.17,-1.76 -16.05,-5.27 -3.86,-3.53 -5.81,-8.53 -5.81,-15.04 0,-13.91 11.12,-21.19 33.31,-21.85l11.68 -0.38 0 -4.27c0,-5.38 -1.16,-9.36 -3.47,-11.93 -2.33,-2.57 -6.04,-3.86 -11.14,-3.86 -5.74,0 -12.21,1.76 -19.45,5.27l-3.19 -7.97c3.38,-1.84 7.09,-3.3 11.12,-4.35 4.05,-1.05 8.1,-1.57 12.15,-1.57 8.2,0 14.27,1.82 18.23,5.46 3.96,3.65 5.93,9.47 5.93,17.51l0 46.96 -7.72 0zm-23.54 -7.33c6.49,0 11.59,-1.78 15.28,-5.34 3.71,-3.55 5.57,-8.52 5.57,-14.93l0 -6.22 -10.44 0.45c-8.26,0.28 -14.24,1.57 -17.91,3.86 -3.66,2.27 -5.48,5.83 -5.48,10.63 0,3.77 1.14,6.64 3.43,8.59 2.27,1.98 5.46,2.96 9.55,2.96zm132.98 -1.89l-0.55 0c-4.82,7.01 -12.02,10.5 -21.6,10.5 -9,0 -16.01,-3.09 -21.02,-9.24 -4.99,-6.15 -7.5,-14.91 -7.5,-26.25 0,-11.36 2.5,-20.16 7.54,-26.44 5.01,-6.28 12.02,-9.43 20.97,-9.43 9.31,0 16.48,3.38 21.46,10.17l0.81 0 -0.42 -4.97 -0.26 -4.82 0 -28.02 10.41 0 0 97.7 -8.46 0 -1.39 -9.22zm-20.85 1.76c7.11,0 12.28,-1.93 15.49,-5.81 3.19,-3.88 4.8,-10.11 4.8,-18.74l0 -2.19c0,-9.75 -1.63,-16.71 -4.86,-20.87 -3.26,-4.18 -8.44,-6.26 -15.56,-6.26 -6.1,0 -10.77,2.38 -14.03,7.13 -3.24,4.74 -4.86,11.44 -4.86,20.12 0,8.79 1.61,15.41 4.84,19.88 3.22,4.48 7.95,6.72 14.18,6.72zm63.21 7.46l-10.42 0 0 -68.78 10.42 0 0 68.78zm-11.29 -87.46c0,-2.38 0.57,-4.11 1.75,-5.23 1.18,-1.12 2.64,-1.67 4.39,-1.67 1.67,0 3.13,0.55 4.33,1.69 1.22,1.14 1.82,2.87 1.82,5.21 0,2.36 -0.6,4.12 -1.82,5.25 -1.2,1.16 -2.66,1.74 -4.33,1.74 -1.76,0 -3.21,-0.58 -4.39,-1.74 -1.18,-1.14 -1.75,-2.89 -1.75,-5.25zm89.7 18.68l0 6.6 -12.73 1.5c1.16,1.46 2.21,3.39 3.13,5.75 0.92,2.35 1.37,5.01 1.37,7.99 0,6.73 -2.29,12.11 -6.9,16.11 -4.6,4.01 -10.93,6.02 -18.96,6.02 -2.06,0 -3.96,-0.17 -5.79,-0.49 -4.43,2.33 -6.64,5.29 -6.64,8.85 0,1.89 0.77,3.28 2.31,4.18 1.57,0.9 4.22,1.35 7.99,1.35l12.17 0c7.45,0 13.17,1.57 17.18,4.71 3.98,3.13 5.98,7.7 5.98,13.67 0,7.6 -3.05,13.41 -9.15,17.39 -6.13,4.01 -15.04,6 -26.76,6 -9,0 -15.94,-1.67 -20.8,-5.01 -4.89,-3.34 -7.33,-8.07 -7.33,-14.16 0,-4.18 1.35,-7.8 4.02,-10.87 2.68,-3.04 6.45,-5.12 11.3,-6.19 -1.76,-0.81 -3.24,-2.03 -4.42,-3.71 -1.2,-1.69 -1.8,-3.64 -1.8,-5.85 0,-2.53 0.69,-4.72 2.01,-6.6 1.35,-1.89 3.45,-3.71 6.34,-5.46 -3.55,-1.48 -6.45,-3.96 -8.7,-7.48 -2.23,-3.51 -3.36,-7.54 -3.36,-12.06 0,-7.52 2.27,-13.32 6.79,-17.4 4.52,-4.09 10.93,-6.12 19.22,-6.12 3.6,0 6.84,0.43 9.73,1.28l23.78 0zm-54.87 80.32c0,3.71 1.57,6.53 4.71,8.46 3.13,1.91 7.63,2.87 13.5,2.87 8.75,0 15.23,-1.31 19.44,-3.92 4.2,-2.59 6.32,-6.15 6.32,-10.6 0,-3.73 -1.16,-6.3 -3.47,-7.74 -2.29,-1.43 -6.62,-2.17 -12.98,-2.17l-12.49 0c-4.74,0 -8.42,1.14 -11.05,3.39 -2.64,2.25 -3.96,5.48 -3.96,9.7zm5.65 -58.32c0,4.82 1.35,8.46 4.07,10.93 2.72,2.46 6.51,3.71 11.38,3.71 10.18,0 15.25,-4.95 15.25,-14.82 0,-10.35 -5.14,-15.51 -15.44,-15.51 -4.91,0 -8.67,1.33 -11.31,3.96 -2.64,2.64 -3.94,6.55 -3.94,11.74zm73.74 46.77l-10.42 0 0 -68.78 10.42 0 0 68.78zm-11.29 -87.46c0,-2.38 0.57,-4.11 1.75,-5.23 1.18,-1.12 2.64,-1.67 4.39,-1.67 1.67,0 3.13,0.55 4.33,1.69 1.22,1.14 1.82,2.87 1.82,5.21 0,2.36 -0.6,4.12 -1.82,5.25 -1.2,1.16 -2.66,1.74 -4.33,1.74 -1.76,0 -3.21,-0.58 -4.39,-1.74 -1.18,-1.14 -1.75,-2.89 -1.75,-5.25zm55.62 80.13c1.84,0 3.62,-0.13 5.33,-0.41 1.72,-0.28 3.07,-0.55 4.07,-0.86l0 7.99c-1.13,0.54 -2.78,0.98 -4.99,1.35 -2.19,0.36 -4.18,0.54 -5.94,0.54 -13.3,0 -19.94,-7.01 -19.94,-21.04l0 -40.92 -9.86 0 0 -5.01 9.86 -4.35 4.39 -14.67 6.02 0 0 15.93 19.97 0 0 8.1 -19.97 0 0 40.48c0,4.16 0.98,7.33 2.96,9.55 1.97,2.21 4.67,3.32 8.1,3.32zm65.45 7.33l-2.07 -9.79 -0.52 0c-3.43,4.31 -6.84,7.24 -10.24,8.79 -3.43,1.52 -7.67,2.29 -12.77,2.29 -6.84,0 -12.17,-1.76 -16.05,-5.27 -3.86,-3.53 -5.81,-8.53 -5.81,-15.04 0,-13.91 11.12,-21.19 33.31,-21.85l11.68 -0.38 0 -4.27c0,-5.38 -1.16,-9.36 -3.47,-11.93 -2.33,-2.57 -6.04,-3.86 -11.14,-3.86 -5.74,0 -12.21,1.76 -19.45,5.27l-3.19 -7.97c3.38,-1.84 7.09,-3.3 11.12,-4.35 4.05,-1.05 8.1,-1.57 12.15,-1.57 8.2,0 14.27,1.82 18.23,5.46 3.96,3.65 5.93,9.47 5.93,17.51l0 46.96 -7.72 0zm-23.54 -7.33c6.49,0 11.59,-1.78 15.28,-5.34 3.71,-3.55 5.57,-8.52 5.57,-14.93l0 -6.22 -10.44 0.45c-8.26,0.28 -14.24,1.57 -17.91,3.86 -3.66,2.27 -5.48,5.83 -5.48,10.63 0,3.77 1.14,6.64 3.43,8.59 2.27,1.98 5.46,2.96 9.55,2.96zm63.16 7.33l-10.42 0 0 -97.7 10.42 0 0 97.7zm82.99 1.29c-9.96,0 -17.67,-3.07 -23.13,-9.2 -5.46,-6.15 -8.18,-14.82 -8.18,-26.03 0,-11.53 2.76,-20.42 8.31,-26.7 5.55,-6.28 13.44,-9.43 23.7,-9.43 3.3,0 6.6,0.36 9.92,1.07 3.3,0.71 5.89,1.55 7.78,2.53l-3.21 8.85c-2.29,-0.92 -4.8,-1.67 -7.52,-2.29 -2.72,-0.6 -5.12,-0.9 -7.22,-0.9 -13.97,0 -20.95,8.91 -20.95,26.73 0,8.44 1.69,14.94 5.09,19.45 3.43,4.52 8.46,6.77 15.17,6.77 5.71,0 11.61,-1.24 17.63,-3.71l0 9.26c-4.61,2.38 -10.39,3.58 -17.38,3.58zm93.07 -35.74c0,11.22 -2.83,19.99 -8.46,26.29 -5.65,6.3 -13.45,9.45 -23.42,9.45 -6.14,0 -11.61,-1.44 -16.39,-4.33 -4.76,-2.89 -8.44,-7.05 -11.03,-12.45 -2.61,-5.4 -3.9,-11.72 -3.9,-18.96 0,-11.22 2.81,-19.97 8.42,-26.23 5.59,-6.26 13.38,-9.38 23.33,-9.38 9.64,0 17.27,3.19 22.95,9.6 5.67,6.4 8.5,15.08 8.5,26.01zm-52.4 0c0,8.79 1.75,15.49 5.27,20.1 3.51,4.6 8.68,6.9 15.51,6.9 6.82,0 12,-2.29 15.54,-6.88 3.53,-4.58 5.29,-11.29 5.29,-20.12 0,-8.74 -1.76,-15.39 -5.29,-19.92 -3.53,-4.54 -8.77,-6.81 -15.66,-6.81 -6.84,0 -11.98,2.23 -15.44,6.71 -3.47,4.47 -5.21,11.16 -5.21,20.03zm158.32 34.45l0 -44.76c0,-5.46 -1.16,-9.58 -3.51,-12.32 -2.33,-2.74 -5.97,-4.11 -10.9,-4.11 -6.49,0 -11.27,1.86 -14.38,5.59 -3.09,3.73 -4.64,9.45 -4.64,17.18l0 38.41 -10.41 0 0 -44.76c0,-5.46 -1.18,-9.58 -3.51,-12.32 -2.34,-2.74 -6,-4.11 -10.99,-4.11 -6.51,0 -11.29,1.95 -14.34,5.87 -3.02,3.9 -4.54,10.33 -4.54,19.24l0 36.08 -10.42 0 0 -68.78 8.47 0 1.69 9.39 0.52 0c1.95,-3.34 4.73,-5.96 8.31,-7.84 3.58,-1.88 7.58,-2.83 12.02,-2.83 10.73,0 17.78,3.9 21.09,11.67l0.49 0c2.06,-3.59 5.03,-6.45 8.91,-8.55 3.9,-2.07 8.34,-3.12 13.3,-3.12 7.78,0 13.61,1.99 17.49,6 3.86,3.98 5.81,10.39 5.81,19.18l0 44.88 -10.44 0zm75.12 -68.78l0 44.63c0,5.59 1.26,9.79 3.83,12.55 2.55,2.77 6.56,4.14 12,4.14 7.2,0 12.45,-1.97 15.8,-5.89 3.32,-3.94 4.99,-10.37 4.99,-19.28l0 -36.15 10.41 0 0 68.78 -8.59 0 -1.5 -9.19 -0.58 0c-2.12,3.38 -5.1,5.98 -8.89,7.78 -3.77,1.8 -8.1,2.7 -12.96,2.7 -8.38,0 -14.63,-2 -18.81,-5.96 -4.16,-3.98 -6.24,-10.35 -6.24,-19.09l0 -45.01 10.54 0zm156.76 68.78l0 -44.76c0,-5.46 -1.16,-9.58 -3.51,-12.32 -2.33,-2.74 -5.97,-4.11 -10.9,-4.11 -6.49,0 -11.27,1.86 -14.38,5.59 -3.09,3.73 -4.64,9.45 -4.64,17.18l0 38.41 -10.41 0 0 -44.76c0,-5.46 -1.18,-9.58 -3.51,-12.32 -2.34,-2.74 -6,-4.11 -10.99,-4.11 -6.51,0 -11.29,1.95 -14.34,5.87 -3.02,3.9 -4.54,10.33 -4.54,19.24l0 36.08 -10.42 0 0 -68.78 8.47 0 1.69 9.39 0.52 0c1.95,-3.34 4.73,-5.96 8.31,-7.84 3.58,-1.88 7.58,-2.83 12.02,-2.83 10.73,0 17.78,3.9 21.09,11.67l0.49 0c2.06,-3.59 5.03,-6.45 8.91,-8.55 3.9,-2.07 8.34,-3.12 13.3,-3.12 7.78,0 13.61,1.99 17.49,6 3.86,3.98 5.81,10.39 5.81,19.18l0 44.88 -10.44 0zm124.69 -34.45c0,11.22 -2.83,19.99 -8.46,26.29 -5.65,6.3 -13.45,9.45 -23.42,9.45 -6.14,0 -11.61,-1.44 -16.39,-4.33 -4.76,-2.89 -8.44,-7.05 -11.03,-12.45 -2.61,-5.4 -3.9,-11.72 -3.9,-18.96 0,-11.22 2.81,-19.97 8.42,-26.23 5.59,-6.26 13.38,-9.38 23.33,-9.38 9.64,0 17.27,3.19 22.95,9.6 5.67,6.4 8.5,15.08 8.5,26.01zm-52.4 0c0,8.79 1.75,15.49 5.27,20.1 3.51,4.6 8.68,6.9 15.51,6.9 6.82,0 12,-2.29 15.54,-6.88 3.53,-4.58 5.29,-11.29 5.29,-20.12 0,-8.74 -1.76,-15.39 -5.29,-19.92 -3.53,-4.54 -8.77,-6.81 -15.66,-6.81 -6.84,0 -11.98,2.23 -15.44,6.71 -3.47,4.47 -5.21,11.16 -5.21,20.03zm81.09 34.45l-10.42 0 0 -97.7 10.42 0 0 97.7zm69.2 0l0 -44.5c0,-5.62 -1.26,-9.79 -3.84,-12.56 -2.55,-2.76 -6.55,-4.13 -12,-4.13 -7.24,0 -12.51,1.97 -15.85,5.89 -3.32,3.94 -4.99,10.39 -4.99,19.35l0 35.95 -10.42 0 0 -97.7 10.42 0 0 29.59c0,3.55 -0.17,6.51 -0.5,8.85l0.62 0c2.05,-3.3 4.97,-5.91 8.77,-7.81 3.79,-1.91 8.12,-2.85 12.96,-2.85 8.42,0 14.74,2 18.94,6 4.19,3.99 6.3,10.35 6.3,19.05l0 44.88 -10.41 0zm74.11 0l-2.07 -9.79 -0.52 0c-3.43,4.31 -6.84,7.24 -10.24,8.79 -3.43,1.52 -7.67,2.29 -12.77,2.29 -6.84,0 -12.17,-1.76 -16.05,-5.27 -3.86,-3.53 -5.81,-8.53 -5.81,-15.04 0,-13.91 11.12,-21.19 33.31,-21.85l11.68 -0.38 0 -4.27c0,-5.38 -1.16,-9.36 -3.47,-11.93 -2.33,-2.57 -6.04,-3.86 -11.14,-3.86 -5.74,0 -12.21,1.76 -19.45,5.27l-3.19 -7.97c3.38,-1.84 7.09,-3.3 11.12,-4.35 4.05,-1.05 8.1,-1.57 12.15,-1.57 8.2,0 14.27,1.82 18.23,5.46 3.96,3.65 5.93,9.47 5.93,17.51l0 46.96 -7.72 0zm-23.54 -7.33c6.49,0 11.59,-1.78 15.28,-5.34 3.71,-3.55 5.57,-8.52 5.57,-14.93l0 -6.22 -10.44 0.45c-8.26,0.28 -14.24,1.57 -17.91,3.86 -3.66,2.27 -5.48,5.83 -5.48,10.63 0,3.77 1.14,6.64 3.43,8.59 2.27,1.98 5.46,2.96 9.55,2.96zm84.11 -62.73c3.05,0 5.79,0.26 8.21,0.75l-1.44 9.71c-2.85,-0.63 -5.35,-0.94 -7.54,-0.94 -5.55,0 -10.31,2.25 -14.27,6.77 -3.94,4.52 -5.91,10.15 -5.91,16.88l0 36.89 -10.44 0 0 -68.78 8.61 0 1.18 12.71 0.52 0c2.55,-4.48 5.62,-7.93 9.22,-10.35 3.6,-2.42 7.54,-3.64 11.86,-3.64zm101.34 60.84l-0.55 0c-4.82,7.01 -12.02,10.5 -21.6,10.5 -9,0 -16.01,-3.09 -21.02,-9.24 -4.99,-6.15 -7.5,-14.91 -7.5,-26.25 0,-11.36 2.5,-20.16 7.54,-26.44 5.01,-6.28 12.02,-9.43 20.97,-9.43 9.31,0 16.48,3.38 21.46,10.17l0.81 0 -0.42 -4.97 -0.26 -4.82 0 -28.02 10.41 0 0 97.7 -8.46 0 -1.39 -9.22zm-20.85 1.76c7.11,0 12.28,-1.93 15.49,-5.81 3.19,-3.88 4.8,-10.11 4.8,-18.74l0 -2.19c0,-9.75 -1.63,-16.71 -4.86,-20.87 -3.26,-4.18 -8.44,-6.26 -15.56,-6.26 -6.1,0 -10.77,2.38 -14.03,7.13 -3.24,4.74 -4.86,11.44 -4.86,20.12 0,8.79 1.61,15.41 4.84,19.88 3.22,4.48 7.95,6.72 14.18,6.72zm81.84 8.75c-10.17,0 -18.19,-3.11 -24.06,-9.3 -5.89,-6.19 -8.83,-14.8 -8.83,-25.82 0,-11.1 2.72,-19.9 8.18,-26.44 5.46,-6.53 12.79,-9.79 22,-9.79 8.61,0 15.44,2.83 20.46,8.5 5.01,5.68 7.54,13.16 7.54,22.43l0 6.6 -47.39 0c0.21,8.08 2.25,14.2 6.1,18.4 3.88,4.18 9.32,6.28 16.37,6.28 7.39,0 14.72,-1.55 21.96,-4.65l0 9.3c-3.69,1.61 -7.18,2.74 -10.46,3.45 -3.28,0.69 -7.24,1.03 -11.89,1.03zm-2.83 -62.61c-5.53,0 -9.92,1.8 -13.2,5.4 -3.3,3.58 -5.23,8.55 -5.81,14.92l35.95 0c0,-6.56 -1.45,-11.59 -4.39,-15.09 -2.94,-3.49 -7.11,-5.23 -12.56,-5.23zm110.29 0.64l-17.5 0 0 60.68 -10.44 0 0 -60.68 -12.29 0 0 -4.71 12.29 -3.77 0 -3.83c0,-16.9 7.39,-25.35 22.18,-25.35 3.64,0 7.91,0.73 12.79,2.21l-2.7 8.36c-4,-1.31 -7.43,-1.95 -10.28,-1.95 -3.94,0 -6.84,1.3 -8.72,3.92 -1.89,2.62 -2.83,6.81 -2.83,12.58l0 4.45 17.5 0 0 8.1zm22.35 -8.1l0 44.63c0,5.59 1.26,9.79 3.83,12.55 2.55,2.77 6.56,4.14 12,4.14 7.2,0 12.45,-1.97 15.8,-5.89 3.32,-3.94 4.99,-10.37 4.99,-19.28l0 -36.15 10.41 0 0 68.78 -8.59 0 -1.5 -9.19 -0.58 0c-2.12,3.38 -5.1,5.98 -8.89,7.78 -3.77,1.8 -8.1,2.7 -12.96,2.7 -8.38,0 -14.63,-2 -18.81,-5.96 -4.16,-3.98 -6.24,-10.35 -6.24,-19.09l0 -45.01 10.54 0zm91.34 61.45c1.84,0 3.62,-0.13 5.33,-0.41 1.72,-0.28 3.07,-0.55 4.07,-0.86l0 7.99c-1.13,0.54 -2.78,0.98 -4.99,1.35 -2.19,0.36 -4.18,0.54 -5.94,0.54 -13.3,0 -19.94,-7.01 -19.94,-21.04l0 -40.92 -9.86 0 0 -5.01 9.86 -4.35 4.39 -14.67 6.02 0 0 15.93 19.97 0 0 8.1 -19.97 0 0 40.48c0,4.16 0.98,7.33 2.96,9.55 1.97,2.21 4.67,3.32 8.1,3.32zm32.95 -61.45l0 44.63c0,5.59 1.26,9.79 3.83,12.55 2.55,2.77 6.56,4.14 12,4.14 7.2,0 12.45,-1.97 15.8,-5.89 3.32,-3.94 4.99,-10.37 4.99,-19.28l0 -36.15 10.41 0 0 68.78 -8.59 0 -1.5 -9.19 -0.58 0c-2.12,3.38 -5.1,5.98 -8.89,7.78 -3.77,1.8 -8.1,2.7 -12.96,2.7 -8.38,0 -14.63,-2 -18.81,-5.96 -4.16,-3.98 -6.24,-10.35 -6.24,-19.09l0 -45.01 10.54 0zm100.48 -1.28c3.05,0 5.79,0.26 8.21,0.75l-1.44 9.71c-2.85,-0.63 -5.35,-0.94 -7.54,-0.94 -5.55,0 -10.31,2.25 -14.27,6.77 -3.94,4.52 -5.91,10.15 -5.91,16.88l0 36.89 -10.44 0 0 -68.78 8.61 0 1.18 12.71 0.52 0c2.55,-4.48 5.62,-7.93 9.22,-10.35 3.6,-2.42 7.54,-3.64 11.86,-3.64zm77.91 35.61c0,11.22 -2.83,19.99 -8.46,26.29 -5.65,6.3 -13.45,9.45 -23.42,9.45 -6.14,0 -11.61,-1.44 -16.39,-4.33 -4.76,-2.89 -8.44,-7.05 -11.03,-12.45 -2.61,-5.4 -3.9,-11.72 -3.9,-18.96 0,-11.22 2.81,-19.97 8.42,-26.23 5.59,-6.26 13.38,-9.38 23.33,-9.38 9.64,0 17.27,3.19 22.95,9.6 5.67,6.4 8.5,15.08 8.5,26.01zm-52.4 0c0,8.79 1.75,15.49 5.27,20.1 3.51,4.6 8.68,6.9 15.51,6.9 6.82,0 12,-2.29 15.54,-6.88 3.53,-4.58 5.29,-11.29 5.29,-20.12 0,-8.74 -1.76,-15.39 -5.29,-19.92 -3.53,-4.54 -8.77,-6.81 -15.66,-6.81 -6.84,0 -11.98,2.23 -15.44,6.71 -3.47,4.47 -5.21,11.16 -5.21,20.03z"/>
 </g>
</svg>
